<svg xmlns="http://www.w3.org/2000/svg" xmlns:xlink="http://www.w3.org/1999/xlink" version="1.1" width="922px" height="642px" viewBox="-0.5 -0.5 922 642">
  <defs/>
  <g>
    <!-- Frontend Container -->
    <rect x="0" y="0" width="920" height="140" rx="21" ry="21" fill="#dae8fc" stroke="#6c8ebf" stroke-width="2"/>
    <text x="460" y="25" fill="#333" font-family="Helvetica" font-size="16" font-weight="bold" text-anchor="middle">Frontend (Angular 20)</text>
    
    <!-- Frontend Modules -->
    <rect x="40" y="50" width="100" height="70" rx="10" ry="10" fill="#fff2cc" stroke="#d6b656" stroke-width="1.5"/>
    <text x="90" y="75" fill="#333" font-family="Helvetica" font-size="20" text-anchor="middle">🍽️</text>
    <text x="90" y="100" fill="#333" font-family="Helvetica" font-size="12" font-weight="bold" text-anchor="middle">Menu</text>
    
    <rect x="160" y="50" width="100" height="70" rx="10" ry="10" fill="#fff2cc" stroke="#d6b656" stroke-width="1.5"/>
    <text x="210" y="75" fill="#333" font-family="Helvetica" font-size="20" text-anchor="middle">📋</text>
    <text x="210" y="100" fill="#333" font-family="Helvetica" font-size="12" font-weight="bold" text-anchor="middle">Orders</text>
    
    <rect x="280" y="50" width="100" height="70" rx="10" ry="10" fill="#fff2cc" stroke="#d6b656" stroke-width="1.5"/>
    <text x="330" y="75" fill="#333" font-family="Helvetica" font-size="20" text-anchor="middle">💳</text>
    <text x="330" y="100" fill="#333" font-family="Helvetica" font-size="12" font-weight="bold" text-anchor="middle">Checkout</text>
    
    <rect x="400" y="50" width="100" height="70" rx="10" ry="10" fill="#fff2cc" stroke="#d6b656" stroke-width="1.5"/>
    <text x="450" y="75" fill="#333" font-family="Helvetica" font-size="20" text-anchor="middle">🎁</text>
    <text x="450" y="100" fill="#333" font-family="Helvetica" font-size="12" font-weight="bold" text-anchor="middle">Loyalty</text>
    
    <rect x="520" y="50" width="100" height="70" rx="10" ry="10" fill="#fff2cc" stroke="#d6b656" stroke-width="1.5"/>
    <text x="570" y="75" fill="#333" font-family="Helvetica" font-size="20" text-anchor="middle">👨‍🍳</text>
    <text x="570" y="100" fill="#333" font-family="Helvetica" font-size="12" font-weight="bold" text-anchor="middle">Kitchen</text>
    
    <rect x="640" y="50" width="100" height="70" rx="10" ry="10" fill="#fff2cc" stroke="#d6b656" stroke-width="1.5"/>
    <text x="690" y="75" fill="#333" font-family="Helvetica" font-size="20" text-anchor="middle">🔐</text>
    <text x="690" y="100" fill="#333" font-family="Helvetica" font-size="12" font-weight="bold" text-anchor="middle">Auth</text>
    
    <rect x="760" y="55" width="140" height="60" rx="8" ry="8" fill="#e1d5e7" stroke="#9673a6" stroke-width="1.5"/>
    <text x="830" y="80" fill="#333" font-family="Helvetica" font-size="11" font-weight="bold" text-anchor="middle">PrimeNG</text>
    <text x="830" y="100" fill="#333" font-family="Helvetica" font-size="11" text-anchor="middle">RxJS + TypeScript</text>
    
    <!-- HTTP Arrow -->
    <path d="M 460 140 L 460 180" fill="none" stroke="#6c8ebf" stroke-width="3" stroke-miterlimit="10"/>
    <path d="M 460 140 L 454 150 L 466 150 Z" fill="#6c8ebf" stroke="#6c8ebf"/>
    <path d="M 460 180 L 454 170 L 466 170 Z" fill="#6c8ebf" stroke="#6c8ebf"/>
    <rect x="475" y="150" width="110" height="20" fill="#fff" fill-opacity="0.9"/>
    <text x="530" y="165" fill="#333" font-family="Helvetica" font-size="12" font-weight="bold" text-anchor="middle">HTTP/REST + JWT</text>
    
    <!-- API Container -->
    <rect x="0" y="190" width="920" height="270" rx="21" ry="21" fill="#d5e8d4" stroke="#82b366" stroke-width="2"/>
    <text x="460" y="215" fill="#333" font-family="Helvetica" font-size="16" font-weight="bold" text-anchor="middle">API Layer (.NET 9)</text>
    
    <!-- Minimal API Endpoints -->
    <rect x="40" y="235" width="840" height="40" rx="10" ry="10" fill="#f8cecc" stroke="#b85450" stroke-width="1.5"/>
    <text x="460" y="262" fill="#333" font-family="Helvetica" font-size="13" font-weight="bold" text-anchor="middle">Minimal API Endpoints</text>
    
    <!-- MediatR CQRS -->
    <rect x="40" y="285" width="840" height="65" rx="10" ry="10" fill="#ffe6cc" stroke="#d79b00" stroke-width="1.5"/>
    <text x="460" y="305" fill="#333" font-family="Helvetica" font-size="13" font-weight="bold" text-anchor="middle">MediatR (CQRS Pattern)</text>
    
    <rect x="80" y="315" width="140" height="28" rx="6" ry="6" fill="#f5f5f5" stroke="#666" stroke-width="1"/>
    <text x="150" y="335" fill="#333" font-family="Helvetica" font-size="11" font-weight="bold" text-anchor="middle">Commands</text>
    
    <rect x="250" y="315" width="140" height="28" rx="6" ry="6" fill="#f5f5f5" stroke="#666" stroke-width="1"/>
    <text x="320" y="335" fill="#333" font-family="Helvetica" font-size="11" font-weight="bold" text-anchor="middle">Queries</text>
    
    <rect x="420" y="315" width="140" height="28" rx="6" ry="6" fill="#f5f5f5" stroke="#666" stroke-width="1"/>
    <text x="490" y="335" fill="#333" font-family="Helvetica" font-size="11" font-weight="bold" text-anchor="middle">Handlers</text>
    
    <rect x="590" y="315" width="140" height="28" rx="6" ry="6" fill="#f5f5f5" stroke="#666" stroke-width="1"/>
    <text x="660" y="335" fill="#333" font-family="Helvetica" font-size="11" font-weight="bold" text-anchor="middle">Notifications</text>
    
    <rect x="760" y="315" width="100" height="28" rx="6" ry="6" fill="#f5f5f5" stroke="#666" stroke-width="1"/>
    <text x="810" y="335" fill="#333" font-family="Helvetica" font-size="11" font-weight="bold" text-anchor="middle">DTOs</text>
    
    <!-- FluentValidation & Services -->
    <rect x="40" y="360" width="400" height="40" rx="10" ry="10" fill="#e1d5e7" stroke="#9673a6" stroke-width="1.5"/>
    <text x="240" y="387" fill="#333" font-family="Helvetica" font-size="12" font-weight="bold" text-anchor="middle">FluentValidation Validators</text>
    
    <rect x="480" y="360" width="400" height="40" rx="10" ry="10" fill="#e1d5e7" stroke="#9673a6" stroke-width="1.5"/>
    <text x="680" y="387" fill="#333" font-family="Helvetica" font-size="12" font-weight="bold" text-anchor="middle">Services (Token, Stripe Payment)</text>
    
    <!-- EF Core -->
    <rect x="40" y="410" width="840" height="40" rx="10" ry="10" fill="#fff2cc" stroke="#d6b656" stroke-width="1.5"/>
    <text x="460" y="437" fill="#333" font-family="Helvetica" font-size="13" font-weight="bold" text-anchor="middle">Entity Framework Core 9 (ORM)</text>
    
    <!-- Database Arrow -->
    <path d="M 460 460 L 460 495" fill="none" stroke="#82b366" stroke-width="3" stroke-miterlimit="10"/>
    <path d="M 460 495 L 454 485 L 466 485 Z" fill="#82b366" stroke="#82b366"/>
    <text x="500" y="482" fill="#333" font-family="Helvetica" font-size="11" font-weight="bold">Npgsql</text>
    
    <!-- Database Container -->
    <rect x="0" y="505" width="920" height="135" rx="21" ry="21" fill="#f5f5f5" stroke="#666" stroke-width="2"/>
    
    <!-- Database Icon -->
    <ellipse cx="60" cy="535" rx="35" ry="12" fill="#336791" stroke="#1d4e6b"/>
    <rect x="25" y="535" width="70" height="55" fill="#336791" stroke="none"/>
    <ellipse cx="60" cy="590" rx="35" ry="12" fill="#336791" stroke="#1d4e6b"/>
    <path d="M 25 535 L 25 590" stroke="#1d4e6b" stroke-width="1"/>
    <path d="M 95 535 L 95 590" stroke="#1d4e6b" stroke-width="1"/>
    <text x="60" y="568" fill="#fff" font-family="Helvetica" font-size="10" font-weight="bold" text-anchor="middle">PostgreSQL</text>
    
    <text x="170" y="530" fill="#333" font-family="Helvetica" font-size="14" font-weight="bold">PostgreSQL 16</text>
    
    <!-- Database Tables -->
    <rect x="120" y="550" width="85" height="45" rx="5" ry="5" fill="#dae8fc" stroke="#6c8ebf" stroke-width="1"/>
    <text x="162" y="580" fill="#333" font-family="Helvetica" font-size="11" font-weight="bold" text-anchor="middle">MenuItems</text>
    
    <rect x="220" y="550" width="85" height="45" rx="5" ry="5" fill="#dae8fc" stroke="#6c8ebf" stroke-width="1"/>
    <text x="262" y="580" fill="#333" font-family="Helvetica" font-size="11" font-weight="bold" text-anchor="middle">Orders</text>
    
    <rect x="320" y="550" width="85" height="45" rx="5" ry="5" fill="#dae8fc" stroke="#6c8ebf" stroke-width="1"/>
    <text x="362" y="580" fill="#333" font-family="Helvetica" font-size="11" font-weight="bold" text-anchor="middle">Payments</text>
    
    <rect x="420" y="550" width="85" height="45" rx="5" ry="5" fill="#dae8fc" stroke="#6c8ebf" stroke-width="1"/>
    <text x="462" y="580" fill="#333" font-family="Helvetica" font-size="11" font-weight="bold" text-anchor="middle">Loyalty</text>
    
    <rect x="520" y="550" width="85" height="45" rx="5" ry="5" fill="#dae8fc" stroke="#6c8ebf" stroke-width="1"/>
    <text x="562" y="580" fill="#333" font-family="Helvetica" font-size="11" font-weight="bold" text-anchor="middle">Inventory</text>
    
    <rect x="620" y="550" width="85" height="45" rx="5" ry="5" fill="#dae8fc" stroke="#6c8ebf" stroke-width="1"/>
    <text x="662" y="580" fill="#333" font-family="Helvetica" font-size="11" font-weight="bold" text-anchor="middle">Identity</text>
    
    <text x="730" y="580" fill="#666" font-family="Helvetica" font-size="20" font-weight="bold">...</text>
    
    <!-- External Service: Stripe -->
    <rect x="780" y="545" width="120" height="55" rx="10" ry="10" fill="#635bff" stroke="#4338ca" stroke-width="2"/>
    <text x="840" y="570" fill="#fff" font-family="Helvetica" font-size="18" text-anchor="middle">💳</text>
    <text x="840" y="590" fill="#fff" font-family="Helvetica" font-size="12" font-weight="bold" text-anchor="middle">Stripe API</text>
    
    <!-- Stripe Connection Arrow -->
    <path d="M 840 400 L 840 545" fill="none" stroke="#635bff" stroke-width="2" stroke-dasharray="5,3"/>
    <path d="M 840 545 L 834 535 L 846 535 Z" fill="#635bff"/>
    <text x="855" y="470" fill="#635bff" font-family="Helvetica" font-size="10" font-weight="bold">HTTPS</text>
    
    <!-- Legend Box -->
    <rect x="720" y="605" width="180" height="30" rx="5" ry="5" fill="#fff" stroke="#ccc" stroke-width="1"/>
    <text x="810" y="625" fill="#666" font-family="Helvetica" font-size="10" text-anchor="middle">CampusEats Architecture v1.0</text>
  </g>
</svg>
